<?xml version="1.0" encoding="utf-8"?>
<!-- Generator: Adobe Illustrator 27.5.0, SVG Export Plug-In . SVG Version: 6.00 Build 0)  -->
<svg version="1.1" xmlns="http://www.w3.org/2000/svg" xmlns:xlink="http://www.w3.org/1999/xlink" x="0px" y="0px"
	 viewBox="0 0 500 500" style="enable-background:new 0 0 500 500;" xml:space="preserve">
<g id="BACKGROUND">
	<rect style="fill:#FFFFFF;" width="500" height="500"/>
</g>
<g id="OBJECTS">
	<path style="fill:#D7E7FF;" d="M427.974,138.138c-18.381-59.003-82.559-92.287-141.368-73.293
		c-35.716,11.536-61.654,39.313-72.284,72.525c-6.147,19.204-23.176,32.762-43.289,34.195c-8.971,0.639-18.011,2.377-26.951,5.302
		c-58.097,19.009-90.369,81.816-71.986,140.114c18.713,59.345,82.133,92.011,141.25,72.918c35.816-11.568,61.8-39.469,72.374-72.805
		c6.098-19.223,23.584-32.429,43.694-33.952c8.67-0.656,17.402-2.34,26.042-5.131C413.942,259.122,446.211,196.677,427.974,138.138z
		"/>
	<g>
		<rect y="421.713" style="fill:#D7E7FF;" width="500" height="78.287"/>
		<ellipse style="fill:#B3CEFF;" cx="250" cy="455.521" rx="191.171" ry="9.557"/>
	</g>
	<g>
		<g>
			
				<ellipse transform="matrix(0.0959 -0.9954 0.9954 0.0959 14.4251 188.4529)" style="fill:#F9D153;" cx="110.958" cy="86.285" rx="49.082" ry="49.082"/>
		</g>
		<g>
			
				<ellipse transform="matrix(0.1583 -0.9874 0.9874 0.1583 8.1958 182.1848)" style="fill:none;stroke:#FFA840;stroke-width:3;stroke-miterlimit:10;" cx="110.958" cy="86.285" rx="38.02" ry="38.021"/>
		</g>
		<g>
			
				<ellipse transform="matrix(0.0974 -0.9952 0.9952 0.0974 14.2738 188.3096)" style="fill:none;stroke:#FFA840;stroke-width:3;stroke-miterlimit:10;" cx="110.958" cy="86.285" rx="58.324" ry="58.324"/>
		</g>
	</g>
	<g>
		<g>
			<path style="fill:none;stroke:#FFB692;stroke-width:10;stroke-miterlimit:10;" d="M229.9,224.164
				c-42.251,23.852-75.958-8.01-26.643-61.935"/>
			<path style="fill:#919328;" d="M219.219,236.689l-5.325-14.307l13.221-4.921c3.911-1.456,8.261,0.535,9.717,4.445l0.054,0.145
				c1.456,3.911-0.535,8.261-4.445,9.717L219.219,236.689z"/>
			<polyline style="fill:none;stroke:#FFB692;stroke-width:13;stroke-miterlimit:10;" points="247.181,421.135 246.777,369.614 
				258.706,310.148 			"/>
			<rect x="240.331" y="419.605" style="fill:#FFFFFF;" width="13.699" height="10.498"/>
			<polygon style="fill:#D7E7FF;" points="254.03,421.038 240.331,422.666 240.331,419.605 254.03,419.605 			"/>
			<rect x="238.819" y="412.983" style="fill:#FFFFFF;" width="16.724" height="6.974"/>
			<g>
				<g>
					<path style="fill:#F9D153;" d="M236.304,426.457l0.105,12.11c0,0-12.615,0.211-16.31,16.904l37.754-0.036v-28.978H236.304z"/>
				</g>
				<path style="fill:#FFA840;" d="M237.268,434.128c1.814-0.491,9.684,1.491,9.509-2.013l0,0c0.195-3.501-7.721-1.524-9.509-2.013
					c-1.111,0.001-2.012,0.902-2.012,2.013l0,0C235.255,433.227,236.156,434.128,237.268,434.128z"/>
				<path style="fill:#FFA840;" d="M237.268,439.964c1.814-0.491,9.684,1.491,9.509-2.012l0,0c0.195-3.501-7.721-1.524-9.509-2.013
					c-1.111,0-2.012,0.901-2.012,2.013l0,0C235.255,439.063,236.156,439.964,237.268,439.964z"/>
				<path style="fill:#FFFFFF;" d="M227.504,442.257c2.391,2.434,4.673,6.571,3.678,13.203l-11.083,0.011
					C221.589,448.743,224.527,444.695,227.504,442.257z"/>
				<rect x="219.457" y="454.582" style="fill:#FFFFFF;" width="39.249" height="3.416"/>
			</g>
			<polyline style="fill:none;stroke:#FFB692;stroke-width:13;stroke-miterlimit:10;" points="288.073,421.135 284.805,368.003 
				288.664,305.556 			"/>
			<polyline style="fill:none;stroke:#1D3244;stroke-width:18;stroke-miterlimit:10;" points="247.181,408.828 246.777,369.614 
				258.706,310.148 			"/>
			<rect x="237.361" y="401.839" style="fill:#325066;" width="19.639" height="7.854"/>
			<rect x="281.224" y="419.605" style="fill:#FFFFFF;" width="13.699" height="10.498"/>
			<polygon style="fill:#D7E7FF;" points="294.923,421.038 281.224,422.666 281.224,419.605 294.923,419.605 			"/>
			<rect x="279.711" y="412.983" style="fill:#FFFFFF;" width="16.724" height="6.974"/>
			<g>
				<g>
					<path style="fill:#F9D153;" d="M277.197,426.457l0.105,12.11c0,0-12.615,0.211-16.31,16.904l37.754-0.036v-28.978H277.197z"/>
				</g>
				<path style="fill:#FFA840;" d="M278.16,434.128h7.496c1.111,0,2.012-0.901,2.012-2.013l0,0c0-1.111-0.901-2.012-2.012-2.012
					h-7.496c-1.111,0-2.013,0.901-2.013,2.012l0,0C276.148,433.227,277.049,434.128,278.16,434.128z"/>
				<path style="fill:#FFA840;" d="M278.16,439.964h7.496c1.111,0,2.012-0.901,2.012-2.012l0,0c0-1.111-0.901-2.012-2.012-2.012
					h-7.496c-1.111,0-2.013,0.901-2.013,2.012l0,0C276.148,439.063,277.049,439.964,278.16,439.964z"/>
				<path style="fill:#FFFFFF;" d="M268.397,442.257c2.391,2.434,4.673,6.571,3.678,13.203l-11.083,0.011
					C262.481,448.743,265.419,444.695,268.397,442.257z"/>
				<rect x="260.35" y="454.582" style="fill:#FFFFFF;" width="39.249" height="3.416"/>
			</g>
			<path style="fill:#1D3244;" d="M265.64,281.758l13.861-1.099c10.224-0.81,19.252,6.891,20.062,17.115l0,0
				c0.811,10.224-6.891,19.252-17.115,20.062l-13.861,1.099c-10.224,0.811-19.252-6.891-20.062-17.115l0,0
				C247.714,291.596,255.416,282.568,265.64,281.758z"/>
			<g>
				<path style="fill:#DACF35;" d="M245.007,295.808c0.7,2.388,2.7,4.186,5.158,4.571c5.442,0.852,13.101,1.277,21.865-0.687
					c12.335-2.764,21.055-8.959,26.053-13.355c1.883-1.656,2.614-4.266,1.909-6.672c-6.361-21.701-11.75-39.582-18.072-61.153
					c-3.651-12.459-16.714-19.602-29.173-15.95l-11.367,3.332c-11.634,3.411-18.301,15.607-14.89,27.242L245.007,295.808z"/>
			</g>
			<path style="fill:#AFA825;" d="M267.349,223.596c-5.133,16.079,1.048,14.432,2.897,13.534s3.355,8.681,7.616,4.041
				c4.261-4.64,3.625-13.47,3.625-13.47L267.349,223.596z"/>
			<path style="fill:#AFA825;" d="M234.827,218.289c-3.742,12.068,4.228,10.16,6.361,9.599c2.133-0.561,1.745,7.633,8.281,7.409
				c6.536-0.225,3.73-12.16,7.21-13.152c3.48-0.992,3.543-10.254,3.543-10.254L234.827,218.289z"/>
			<path style="fill:#919328;" d="M242.951,288.944l55.155-15.605c-1.9-6.454-3.729-12.626-5.537-18.721l-55.149,15.604
				L242.951,288.944z"/>
			<path style="fill:#919328;" d="M236.096,265.652l55.144-15.602c-0.573-1.93-1.146-3.859-1.719-5.792l-55.137,15.6
				L236.096,265.652z"/>
			<path style="fill:#FFB692;" d="M260.352,207.099c1.846,4.206-2.372,10.121-9.421,13.211c-7.049,3.09-14.259,2.186-16.104-2.02
				c-1.846-4.206,2.372-10.121,9.421-13.211C251.296,201.988,258.507,202.892,260.352,207.099z"/>
			<path style="fill:#FFB692;" d="M242.397,152.164l0.91-0.062c5.835-0.397,11.068,6.67,11.688,15.783l3.196,46.831l-22.04,1.5
				l-3.195-46.83C232.335,160.272,236.562,152.562,242.397,152.164z"/>
			<path style="fill:#B77674;" d="M241.203,152.252l0.91-0.062c5.835-0.397,11.031,6.131,11.606,14.581l2.101,30.87
				c0.414,6.086-4.184,11.356-10.27,11.77l0,0c-6.086,0.414-11.356-4.184-11.77-10.27l-2.101-30.87
				C231.104,159.821,235.368,152.649,241.203,152.252z"/>
			<path style="fill:#1D3244;" d="M267.428,160.739c1.045,14.241-9.652,26.633-23.893,27.678
				c-14.241,1.045-26.632-9.652-27.678-23.893c-1.045-14.241,9.652-26.632,23.893-27.677
				C253.992,135.801,266.383,146.499,267.428,160.739z"/>
			<path style="fill:#D88D87;" d="M266.723,176.674l-47.842,3.511c-2.093,0.154-3.914-1.418-4.068-3.511l0,0
				c-0.154-2.093,1.419-3.914,3.512-4.068l47.842-3.511c2.093-0.153,3.914,1.419,4.068,3.512l0,0
				C270.388,174.699,268.816,176.52,266.723,176.674z"/>
			<path style="fill:#AA635F;" d="M216.797,176.527L216.797,176.527c-0.073-0.998,0.676-1.865,1.673-1.938l47.843-3.511
				c0.997-0.073,1.865,0.676,1.938,1.673l0,0c0.073,0.997-0.676,1.866-1.674,1.939l-47.842,3.511
				C217.738,178.274,216.87,177.524,216.797,176.527z"/>
			<path style="fill:#FFB692;" d="M244.706,204.373L244.706,204.373c-11.684,0.857-21.85-7.919-22.708-19.603l-1.724-23.489
				c-0.822-11.201,7.592-20.948,18.793-21.77l1.747-0.128c11.201-0.822,20.948,7.592,21.77,18.793l1.724,23.488
				C265.166,193.35,256.39,203.516,244.706,204.373z"/>
			<path style="fill:#D88D87;" d="M246.16,153.04l-25.138,1.169c-0.641,2.238-0.928,4.617-0.747,7.074l0.927,12.63
				C241.407,167.334,246.16,153.04,246.16,153.04z"/>
			<g>
				<g>
					<path style="fill:#252538;" d="M231.131,171.537c-1.368,0.1-2.395,1.29-2.294,2.658c0.1,1.367,1.29,2.395,2.658,2.294
						c1.367-0.1,2.395-1.29,2.294-2.658C233.688,172.464,232.498,171.437,231.131,171.537z"/>
					<path style="fill:#252538;" d="M249.891,170.16c-1.367,0.1-2.395,1.29-2.294,2.658c0.1,1.368,1.29,2.394,2.658,2.294
						c1.367-0.1,2.395-1.29,2.294-2.658C252.448,171.087,251.258,170.06,249.891,170.16z"/>
				</g>
				<g>
					<path style="fill:#1D3244;" d="M253.695,165.306l-4.391-1.037c-0.962-0.227-1.926,0.369-2.154,1.331
						c-0.227,0.962,0.369,1.927,1.331,2.154l4.391,1.037c0.962,0.227,1.926-0.369,2.154-1.331
						C255.253,166.498,254.657,165.533,253.695,165.306z"/>
					<path style="fill:#1D3244;" d="M230.851,165.623l-4.192,1.667c-0.919,0.365-1.368,1.406-1.002,2.325
						c0.365,0.919,1.406,1.368,2.325,1.002l4.193-1.667c0.919-0.365,1.367-1.406,1.002-2.325
						C232.811,165.707,231.77,165.258,230.851,165.623z"/>
				</g>
				<path style="fill:#D88D87;" d="M249.579,196.368c0.082,1.122-2.024,2.191-4.704,2.388c-2.68,0.197-4.92-0.553-5.002-1.675
					c-0.082-1.122,2.024-2.191,4.704-2.388C247.257,194.496,249.497,195.246,249.579,196.368z"/>
				<g>
					<path style="fill:#D88D87;" d="M240.519,182.609L240.519,182.609c-1.862,0.113-3.462-1.305-3.575-3.166l-0.332-5.466
						c-0.113-1.861,1.305-3.462,3.166-3.575l0,0c1.862-0.113,3.462,1.305,3.575,3.166l0.331,5.466
						C243.799,180.896,242.381,182.496,240.519,182.609z"/>
					<path style="fill:#F79C97;" d="M242.194,180.587L242.194,180.587c-0.492,0.03-0.915-0.345-0.944-0.837l-0.383-6.327
						c-0.03-0.492,0.344-0.915,0.836-0.944l0,0c0.492-0.03,0.915,0.345,0.944,0.836l0.384,6.327
						C243.06,180.134,242.686,180.557,242.194,180.587z"/>
					<g>
						<path style="fill:#252538;" d="M247.577,191.482c-2.18,0.396-5.222,1.099-8.079,2.277c-1.879,0.775-3.589-1.596-2.636-3.691
							c1.014-2.23,2.842-4.341,6.139-4.711c2.702-0.303,4.447,0.369,5.575,1.345C250.171,188.084,249.52,191.129,247.577,191.482z"
							/>
						<path style="fill:#FF9292;" d="M245.593,188.347c-2.988,0.785-4.472,2.88-5.199,5.063c2.584-0.968,5.228-1.573,7.182-1.927
							c1.411-0.256,2.135-1.93,1.819-3.357C248.365,187.922,247.116,187.947,245.593,188.347z"/>
						<path style="fill:#FFABAB;" d="M242.458,191.574c0.348,0.543,1.593,0.4,2.78-0.32c1.187-0.72,1.867-1.745,1.518-2.288
							c-0.348-0.544-1.593-0.4-2.78,0.32C242.79,190.006,242.11,191.03,242.458,191.574z"/>
					</g>
				</g>
			</g>
			<path style="fill:#1D3244;" d="M215.813,163.755c0,0-6.353-22.154,9.803-34.742l0.579,7.896c0,0,16.479-5.492,28.651,3.645
				c12.172,9.137,8.545,28.615,8.545,28.615l0.605,8.24l-3.344,0.246l-1.031-14.056c0,0-7.522-0.554-8.338-8.396l-28.557,2.095
				c0,0-0.698,3.176-2.27,6.457H215.813z"/>
			<path style="fill:#325066;" d="M261.24,145.773c-1.106-1.283-2.338-2.448-3.67-3.49c-4.552,3.674-11.123,7.255-19.853,7.895
				c-10.731,0.788-17.228-4.527-20.847-9.282c-0.841,2.193-1.402,4.409-1.751,6.563C232.808,156.843,252.332,149.96,261.24,145.773z
				"/>
			<polyline style="fill:none;stroke:#1D3244;stroke-width:18;stroke-miterlimit:10;" points="287.279,408.224 284.805,368.003 
				288.664,305.556 			"/>
			
				<rect x="277.227" y="400.457" transform="matrix(0.9986 -0.0532 0.0532 0.9986 -21.119 15.8532)" style="fill:#325066;" width="19.639" height="7.854"/>
			<g>
				<path style="fill:#D88D87;" d="M248.161,156.942c0,0-2.001,3.064-2.001,4.169c0,1.105,0.896,2.001,2.001,2.001
					c1.105,0,2.001-0.896,2.001-2.001C250.162,160.005,248.161,156.942,248.161,156.942z"/>
				<path style="fill:#FFFFFF;" d="M248.161,156.045c0,0-2.001,3.063-2.001,4.169c0,1.105,0.896,2.001,2.001,2.001
					c1.105,0,2.001-0.896,2.001-2.001C250.162,159.109,248.161,156.045,248.161,156.045z"/>
				<path style="fill:#D7E7FF;" d="M249.018,157.464c0.331,0.683,0.633,1.412,0.633,1.82c0,0.908-0.667,1.645-1.489,1.645
					c-0.823,0-1.49-0.736-1.49-1.645c0-0.408,0.302-1.137,0.633-1.82c-0.544,0.956-1.144,2.143-1.144,2.75
					c0,1.105,0.896,2.001,2.001,2.001c1.105,0,2.001-0.896,2.001-2.001C250.162,159.607,249.562,158.42,249.018,157.464z"/>
			</g>
			<g>
				<path style="fill:#D88D87;" d="M256.563,170.363c0,0-2.001,3.064-2.001,4.169c0,1.105,0.896,2.001,2.001,2.001
					c1.105,0,2.001-0.896,2.001-2.001C258.564,173.427,256.563,170.363,256.563,170.363z"/>
				<path style="fill:#FFFFFF;" d="M256.563,169.467c0,0-2.001,3.064-2.001,4.169c0,1.105,0.896,2.001,2.001,2.001
					c1.105,0,2.001-0.896,2.001-2.001C258.564,172.53,256.563,169.467,256.563,169.467z"/>
				<path style="fill:#D7E7FF;" d="M257.42,170.885c0.331,0.683,0.633,1.412,0.633,1.82c0,0.908-0.667,1.645-1.489,1.645
					c-0.823,0-1.49-0.736-1.49-1.645c0-0.408,0.302-1.137,0.632-1.82c-0.544,0.956-1.144,2.143-1.144,2.75
					c0,1.105,0.896,2.001,2.001,2.001c1.105,0,2.001-0.896,2.001-2.001C258.564,173.029,257.964,171.842,257.42,170.885z"/>
			</g>
			<g>
				<path style="fill:#B3CEFF;" d="M262.56,320.597L262.56,320.597c-0.485,0.941-1.642,1.311-2.583,0.826l-3.639-1.876
					c-1.779-0.917-3.966-0.218-4.883,1.561l-0.763,1.48c-0.917,1.78-0.218,3.966,1.561,4.883l3.639,1.876
					c0.941,0.485,1.311,1.642,0.826,2.583l0,0c-0.643,1.247-0.153,2.779,1.094,3.421l23.198,11.958
					c1.247,0.643,2.779,0.153,3.421-1.094l5.842-11.333c0.643-1.247,0.153-2.779-1.094-3.422l-23.198-11.958
					C264.734,318.86,263.202,319.35,262.56,320.597z"/>
				<path style="fill:#D7E7FF;" d="M282.945,345.449c-0.22,0.426-0.744,0.593-1.17,0.374l-23.198-11.958
					c-0.426-0.219-0.594-0.744-0.374-1.17c0.907-1.759,0.214-3.927-1.546-4.834l-3.639-1.876c-0.958-0.494-1.334-1.674-0.841-2.632
					l0.763-1.48c0.494-0.958,1.673-1.335,2.631-0.841l3.639,1.876c1.759,0.907,3.927,0.214,4.834-1.546
					c0.22-0.426,0.744-0.594,1.17-0.374l23.198,11.958c0.426,0.22,0.593,0.744,0.374,1.17L282.945,345.449z"/>
				<path style="fill:#96B5E2;" d="M252.253,327.471l1.272,0.656l5.205-7.347l-2.393-1.233c-0.324-0.167-0.664-0.263-1.005-0.326
					l-3.928,7.621C251.654,327.083,251.929,327.303,252.253,327.471z"/>
				
					<rect x="246.919" y="319.994" transform="matrix(0.4582 -0.8889 0.8889 0.4582 -149.9347 399.0422)" style="fill:#B3CEFF;" width="10.867" height="5.027"/>
				
					<rect x="267.472" y="325.051" transform="matrix(0.4582 -0.8889 0.8889 0.4582 -148.2164 423.0498)" style="fill:#B3CEFF;" width="10.867" height="16.101"/>
				<path style="fill:#FFFFFF;" d="M268.704,330.936c0,0,2.768,4.877,4.273,5.653c1.505,0.776,3.355,0.185,4.131-1.32
					c0.776-1.505,0.185-3.355-1.321-4.131C274.282,330.361,268.704,330.936,268.704,330.936z"/>
			</g>
			<path style="fill:#B3CEFF;" d="M239.962,160.91l-28.514,10.613c-2.514,0.936-5.31-0.343-6.245-2.857l-4.184-11.239
				c-0.936-2.513,0.344-5.31,2.857-6.245l28.514-10.613c2.514-0.936,5.31,0.344,6.245,2.857l4.184,11.239
				C243.754,157.178,242.475,159.974,239.962,160.91z"/>
			<path style="fill:#8EB5EF;" d="M206.843,150.077l-2.92,1.087c-2.539,0.945-3.832,3.77-2.887,6.309l4.149,11.146
				c0.945,2.539,3.77,3.832,6.309,2.887l28.42-10.579c0.788-0.293,1.437-0.781,1.955-1.372
				C231.953,161.753,217.205,162.208,206.843,150.077z"/>
			<g>
				<g>
					<path style="fill:#FFB692;" d="M198.873,164.524c-5.47-4.757,2.768-11.337,2.768-11.337l1.676-7.169
						c0,0,6.321,1.771,3.468,7.699c0,0,6.137-2.297,8.814-6.403c3.267-5.011,8.734,7.996,7.074,13.84
						c-0.901,3.174-5.803,2.901-8.952,5.645C209.333,170.62,201.102,172.673,198.873,164.524z"/>
				</g>
				<g>
					<path style="fill:#D88D87;" d="M211.205,159.874l0.19,0.5c0,0,6.87-1.686,11.07-5.855c-0.073-0.316-0.151-0.63-0.237-0.943
						C220.699,155.406,217.445,158.268,211.205,159.874z"/>
					<path style="fill:#D88D87;" d="M212.878,163.467c0,0,6.211-1.454,10.085-4.216c0.016-0.326,0.017-0.662,0.008-1.005
						c-1.627,1.211-5.103,3.409-10.309,4.69L212.878,163.467z"/>
					<path style="fill:#D88D87;" d="M209.639,156.57c0,0,7.058-1.505,10.903-7.279c-0.216-0.4-0.441-0.77-0.672-1.108
						c-1.436,2.301-4.488,5.911-10.342,8.035L209.639,156.57z"/>
				</g>
			</g>
			<g>
				<g>
					<path style="fill:none;stroke:#FFB692;stroke-width:10;stroke-miterlimit:10;" d="M274.237,218.149
						c0,0,14.428,54.596,2.575,109.192"/>
					<g>
						<g>
							<path style="fill:#FFB692;" d="M278.61,319.848c-6.036-4.015-10.199,5.67-10.199,5.67l-6.47,3.515
								c0,0,3.381,5.626,8.343,1.306c0,0-0.591,6.526-3.841,10.195c-3.968,4.478,10.023,6.305,15.219,3.158
								c2.822-1.709,1.262-6.364,3.073-10.127C287.258,328.321,287.058,319.841,278.61,319.848z"/>
						</g>
						<g>
							<path style="fill:#D88D87;" d="M277.391,332.971l0.533,0.051c0,0,0.193,7.071-2.715,12.225
								c-0.324,0.013-0.648,0.021-0.972,0.021C275.596,343.309,277.494,339.414,277.391,332.971z"/>
							<path style="fill:#D88D87;" d="M281.298,333.633c0,0,0.242,6.375-1.396,10.841c-0.31,0.102-0.634,0.192-0.967,0.273
								c0.737-1.889,1.936-5.823,1.794-11.183L281.298,333.633z"/>
							<path style="fill:#D88D87;" d="M273.79,332.335c0,0,0.418,7.204-4.132,12.441c-0.442-0.103-0.859-0.221-1.246-0.354
								c1.838-1.994,4.512-5.893,5.01-12.1L273.79,332.335z"/>
						</g>
					</g>
				</g>
				<path style="fill:#919328;" d="M284.217,229.971l-14.962,3.033l-2.802-13.826c-0.829-4.09,1.814-8.077,5.904-8.906l0.152-0.031
					c4.09-0.829,8.077,1.814,8.906,5.904L284.217,229.971z"/>
			</g>
		</g>
		<g>
			<g>
				<path style="fill:#FFFFFF;" d="M313.236,165.17c-0.184-1.205-0.074-2.54,0.501-3.754c0.593-1.184,1.476-2.189,2.395-3.081
					c1.883-1.691,3.91-3.093,5.158-4.661c0.579-0.798,0.906-1.597,1.032-2.44c0.067-0.875-0.028-1.784-0.347-2.526
					c-0.345-0.746-0.918-1.423-1.664-2.104c-0.783-0.666-1.723-1.301-2.707-1.982c-1.006-0.691-2.07-1.417-3.102-2.35
					c-1.026-0.955-2.01-2.178-2.58-3.67c-0.546-1.52-0.573-3.077-0.294-4.577c0.343-1.524,1.186-2.889,2.182-3.911
					c2.044-1.985,4.348-2.914,6.321-4.132c0.993-0.593,1.885-1.274,2.651-2.106c0.732-0.858,1.176-1.941,1.446-3.15
					c0.164,1.205,0.045,2.531-0.537,3.731c-0.586,1.181-1.484,2.163-2.4,3.05c-1.881,1.683-3.916,3.073-5.183,4.656
					c-0.601,0.803-0.893,1.638-1.037,2.487c0.01,0.452-0.076,0.894,0.044,1.329c0.052,0.211,0.02,0.449,0.115,0.639
					c0.076,0.197,0.144,0.392,0.206,0.591c0.37,0.744,0.933,1.438,1.696,2.106c0.799,0.65,1.729,1.298,2.727,1.959
					c1.019,0.672,2.074,1.41,3.122,2.326c1.043,0.943,2.017,2.181,2.612,3.672c0.243,0.765,0.455,1.538,0.458,2.312
					c0.1,0.772-0.043,1.542-0.146,2.299c-0.36,1.53-1.168,2.93-2.185,3.958c-2.064,2.001-4.376,2.917-6.347,4.127
					c-0.99,0.589-1.897,1.246-2.656,2.075C313.978,162.887,313.526,163.962,313.236,165.17z"/>
			</g>
			<g>
				<path style="fill:#FFFFFF;" d="M279.503,165.17c-0.128-1.204,0.009-2.514,0.604-3.688c0.597-1.157,1.49-2.123,2.415-2.985
					c0.931-0.848,1.917-1.586,2.84-2.33c0.911-0.744,1.735-1.521,2.399-2.31c0.62-0.816,0.969-1.677,1.098-2.574
					c0.052-0.926-0.018-1.88-0.369-2.673c-0.381-0.787-0.982-1.499-1.77-2.166c-0.811-0.663-1.754-1.303-2.76-1.955
					c-1.018-0.672-2.077-1.392-3.127-2.29c-1.038-0.928-2.017-2.136-2.619-3.607l-0.326-1.139c-0.121-0.379-0.097-0.765-0.145-1.147
					c-0.112-0.766,0.035-1.53,0.131-2.284c0.338-1.526,1.146-2.919,2.148-3.955c2.057-1.997,4.347-2.953,6.329-4.144
					c0.963-0.618,1.903-1.237,2.644-2.08c0.747-0.837,1.199-1.909,1.498-3.117c0.193,1.206,0.083,2.543-0.485,3.764
					c-0.611,1.17-1.461,2.214-2.406,3.076c-1.872,1.71-3.921,3.073-5.175,4.645c-0.594,0.79-0.921,1.596-1.07,2.443
					c-0.065,0.882-0.006,1.804,0.319,2.566c0.338,0.766,0.906,1.474,1.657,2.169c0.782,0.685,1.717,1.339,2.703,2.019
					c0.998,0.701,2.049,1.434,3.07,2.354c1.001,0.957,1.947,2.161,2.506,3.61l0.309,1.115c0.116,0.37,0.088,0.749,0.131,1.122
					c0.104,0.748-0.046,1.494-0.15,2.226c-0.357,1.477-1.143,2.814-2.119,3.825c-0.987,0.985-2.083,1.693-3.15,2.338l-3.115,1.809
					c-0.984,0.618-1.88,1.315-2.636,2.171C280.163,162.861,279.738,163.96,279.503,165.17z"/>
			</g>
			<g>
				<path style="fill:#FFFFFF;" d="M296.738,186.153c0.004-0.498-0.062-1.024,0.017-1.535c0.107-0.504,0.161-1.045,0.401-1.52
					c0.365-1.016,1.068-1.847,1.765-2.645c1.472-1.522,3.213-2.659,4.648-3.942c1.443-1.262,2.512-2.668,2.649-4.224
					c0.027-0.791,0.004-1.605-0.267-2.307c-0.186-0.726-0.7-1.317-1.211-1.918c-1.18-1.16-2.859-2.091-4.599-3.244
					c-0.879-0.605-1.791-1.21-2.66-2.061c-0.885-0.788-1.67-1.89-2.22-3.112c-0.481-1.273-0.727-2.598-0.58-3.917
					c0.032-0.33,0.049-0.661,0.107-0.989l0.28-0.983l0.152-0.488c0.067-0.154,0.147-0.303,0.221-0.454l0.47-0.897
					c1.475-2.237,3.458-3.468,5.098-4.621c1.655-1.112,3.137-2.162,3.897-3.32c0.117-0.308,0.377-0.563,0.424-0.888
					c0.047-0.155,0.1-0.308,0.158-0.461c0.028-0.166,0.031-0.341,0.055-0.51c0.116-0.684-0.034-1.388-0.204-2.005
					c-0.426-1.235-1.666-2.411-3.215-3.545c-1.555-1.145-3.393-2.293-4.958-4.126l-0.541-0.751
					c-0.185-0.243-0.351-0.504-0.482-0.801l-0.412-0.858c-0.106-0.299-0.179-0.614-0.264-0.92c-0.327-1.231-0.28-2.483-0.048-3.686
					c0.173-0.59,0.361-1.2,0.643-1.739c0.309-0.531,0.606-1.069,1.013-1.491c0.748-0.925,1.648-1.572,2.517-2.192
					c1.785-1.143,3.573-2.007,5.143-3.138c1.543-1.115,2.751-2.737,2.99-4.794c-0.001,0.498,0.066,1.024-0.012,1.536
					c-0.106,0.504-0.158,1.047-0.397,1.524c-0.365,1.017-1.066,1.852-1.762,2.654c-1.474,1.523-3.211,2.668-4.642,3.952
					c-1.448,1.255-2.501,2.665-2.635,4.207c-0.022,0.786-0.019,1.596,0.26,2.294c0.069,0.173,0.117,0.351,0.191,0.52l0.295,0.478
					c0.079,0.165,0.199,0.317,0.339,0.461l0.38,0.447c1.183,1.143,2.843,2.097,4.587,3.246c0.88,0.604,1.793,1.21,2.664,2.061
					c0.887,0.788,1.675,1.893,2.231,3.117c0.478,1.28,0.711,2.608,0.572,3.928c-0.031,0.331-0.051,0.662-0.105,0.991l-0.279,0.985
					c-0.156,0.675-0.542,1.238-0.845,1.843c-1.488,2.232-3.458,3.477-5.109,4.618c-1.667,1.1-3.133,2.165-3.913,3.312
					c-0.074,0.149-0.153,0.295-0.237,0.439l-0.125,0.216l-0.067,0.235c-0.047,0.156-0.1,0.309-0.158,0.463
					c-0.031,0.165-0.032,0.342-0.056,0.512c-0.078,0.343-0.028,0.687-0.003,1.033c-0.032,0.366,0.15,0.646,0.194,0.984
					c0.428,1.245,1.675,2.421,3.224,3.554c1.559,1.141,3.379,2.31,4.949,4.125l0.541,0.747c0.184,0.243,0.351,0.502,0.482,0.797
					l0.411,0.854c0.108,0.297,0.179,0.611,0.264,0.916c0.337,1.227,0.271,2.475,0.044,3.673c-0.17,0.588-0.358,1.195-0.637,1.733
					c-0.307,0.529-0.602,1.066-1.008,1.487c-0.746,0.921-1.638,1.576-2.513,2.187c-1.781,1.144-3.565,2.016-5.138,3.147
					C298.176,182.468,296.969,184.096,296.738,186.153z"/>
			</g>
		</g>
	</g>
	<g>
		<path style="fill:#FFFFFF;" d="M410.064,360.455l6.866-209.114c0.408-12.441-9.346-22.859-21.788-23.267l0,0
			c-12.442-0.409-22.859,9.346-23.267,21.788l-6.866,209.114c-17.373,7.789-29.731,24.957-30.398,45.268
			c-0.932,28.392,21.328,52.164,49.72,53.096c28.392,0.932,52.164-21.328,53.096-49.72
			C438.094,387.308,426.889,369.367,410.064,360.455z"/>
		<path style="fill:#D7E7FF;" d="M384.486,452.583c-25.724-0.845-45.964-22.46-45.12-48.183
			c0.59-17.974,11.162-33.716,27.589-41.081l2.712-1.217l6.964-212.084c0.322-9.799,8.555-17.509,18.353-17.187
			c9.799,0.322,17.509,8.555,17.187,18.354l-6.963,212.084l2.626,1.392c15.908,8.427,25.424,24.828,24.834,42.803
			C431.825,433.187,410.21,453.427,384.486,452.583z"/>
		<g>
			<path style="fill:#D36259;" d="M405.607,368.865l-5.252-2.783l5.623-171.255l-26.027-0.855l-5.623,171.255l-5.424,2.434
				c-14.755,6.615-24.25,20.752-24.78,36.895c-0.759,23.101,17.418,42.512,40.519,43.27c23.101,0.759,42.512-17.418,43.27-40.519
				C428.443,391.165,419.896,376.435,405.607,368.865z"/>
			<path style="fill:#B3CEFF;" d="M407.416,151.028c0.236-7.176-5.411-13.205-12.587-13.441c-7.175-0.236-13.205,5.41-13.441,12.586
				l-1.438,43.799l26.027,0.855L407.416,151.028z"/>
		</g>
		<path style="fill:#BC423F;" d="M414.167,379.647c0.045,0.997,0.063,2,0.03,3.015c-0.696,21.196-18.443,37.815-39.639,37.119
			c-10.66-0.35-20.16-5.015-26.884-12.261c0.887,19.838,16.907,35.962,37.089,36.625c21.196,0.696,38.943-15.923,39.639-37.119
			C424.749,396.489,420.813,386.808,414.167,379.647z"/>
		
			<ellipse transform="matrix(0.8674 -0.4975 0.4975 0.8674 -143.8718 237.3811)" style="opacity:0.5;fill:#FFFFFF;" cx="373.557" cy="388.695" rx="21.517" ry="12.873"/>
		<path style="opacity:0.75;fill:#FFFFFF;" d="M377.602,378.34c0.823,1.435-2.399,4.83-7.197,7.582
			c-4.798,2.752-9.355,3.819-10.179,2.384c-0.823-1.435,2.399-4.83,7.197-7.582C372.221,377.972,376.778,376.904,377.602,378.34z"/>
		<path style="opacity:0.25;fill:#FFFFFF;" d="M382.143,358.437L382.143,358.437c-2.064-0.068-3.683-1.796-3.615-3.86l6.24-190.06
			c0.068-2.064,1.796-3.683,3.86-3.615l0,0c2.064,0.068,3.683,1.796,3.615,3.86l-6.24,190.06
			C385.935,356.886,384.207,358.505,382.143,358.437z"/>
		<g>
			<g>
				<g>
					
						<rect x="399.488" y="152.233" transform="matrix(0.0328 -0.9995 0.9995 0.0328 230.6871 551.6494)" style="fill:#FFFFFF;" width="1.765" height="8.801"/>
					
						<rect x="396.302" y="158.984" transform="matrix(0.0328 -0.9995 0.9995 0.0328 223.9139 552.0312)" style="fill:#FFFFFF;" width="1.765" height="2.675"/>
					
						<rect x="396.178" y="162.774" transform="matrix(0.0328 -0.9995 0.9995 0.0328 220.0216 555.5789)" style="fill:#FFFFFF;" width="1.765" height="2.675"/>
					
						<rect x="396.053" y="166.563" transform="matrix(0.0328 -0.9995 0.9995 0.0328 216.0997 559.1132)" style="fill:#FFFFFF;" width="1.765" height="2.675"/>
					
						<rect x="395.929" y="170.352" transform="matrix(0.0328 -0.9995 0.9995 0.0328 212.192 562.6539)" style="fill:#FFFFFF;" width="1.765" height="2.676"/>
				</g>
				<g>
					
						<rect x="398.867" y="171.147" transform="matrix(0.0328 -0.9995 0.9995 0.0328 211.1823 569.3226)" style="fill:#FFFFFF;" width="1.765" height="8.801"/>
					
						<rect x="395.681" y="177.899" transform="matrix(0.0328 -0.9995 0.9995 0.0328 204.4099 569.7045)" style="fill:#FFFFFF;" width="1.765" height="2.675"/>
					
						<rect x="395.557" y="181.688" transform="matrix(0.0328 -0.9995 0.9995 0.0328 200.5027 573.2454)" style="fill:#FFFFFF;" width="1.765" height="2.675"/>
					
						<rect x="395.432" y="185.477" transform="matrix(0.0328 -0.9995 0.9995 0.0328 196.5944 576.7859)" style="fill:#FFFFFF;" width="1.765" height="2.675"/>
					
						<rect x="395.308" y="189.267" transform="matrix(0.0328 -0.9995 0.9995 0.0328 192.6867 580.3266)" style="fill:#FFFFFF;" width="1.765" height="2.675"/>
				</g>
				<g>
					
						<rect x="398.246" y="190.061" transform="matrix(0.0329 -0.9995 0.9995 0.0329 191.6553 586.984)" style="fill:#FFFFFF;" width="1.765" height="8.801"/>
					
						<rect x="395.06" y="196.813" transform="matrix(0.0328 -0.9995 0.9995 0.0328 184.9054 587.3777)" style="fill:#FFFFFF;" width="1.765" height="2.676"/>
					
						<rect x="394.936" y="200.602" transform="matrix(0.0328 -0.9995 0.9995 0.0328 180.9974 590.9181)" style="fill:#FFFFFF;" width="1.765" height="2.675"/>
					
						<rect x="394.811" y="204.392" transform="matrix(0.0328 -0.9995 0.9995 0.0328 177.0896 594.4588)" style="fill:#FFFFFF;" width="1.765" height="2.675"/>
					
						<rect x="394.687" y="208.181" transform="matrix(0.0328 -0.9995 0.9995 0.0328 173.1818 597.9996)" style="fill:#FFFFFF;" width="1.765" height="2.675"/>
				</g>
				<g>
					
						<rect x="397.625" y="208.976" transform="matrix(0.0328 -0.9995 0.9995 0.0328 172.1726 604.6689)" style="fill:#FFFFFF;" width="1.765" height="8.801"/>
					
						<rect x="394.439" y="215.727" transform="matrix(0.0328 -0.9995 0.9995 0.0328 165.4002 605.0504)" style="fill:#FFFFFF;" width="1.765" height="2.675"/>
					
						<rect x="394.315" y="219.517" transform="matrix(0.0328 -0.9995 0.9995 0.0328 161.4925 608.5911)" style="fill:#FFFFFF;" width="1.765" height="2.675"/>
					
						<rect x="394.19" y="223.306" transform="matrix(0.0328 -0.9995 0.9995 0.0328 157.5843 612.1315)" style="fill:#FFFFFF;" width="1.765" height="2.675"/>
					
						<rect x="394.066" y="227.096" transform="matrix(0.0328 -0.9995 0.9995 0.0328 153.6775 615.6729)" style="fill:#FFFFFF;" width="1.765" height="2.675"/>
				</g>
				<g>
					
						<rect x="397.004" y="227.89" transform="matrix(0.0328 -0.9995 0.9995 0.0328 152.6677 622.3422)" style="fill:#FFFFFF;" width="1.765" height="8.801"/>
					
						<rect x="393.818" y="234.642" transform="matrix(0.0328 -0.9995 0.9995 0.0328 145.8954 622.7234)" style="fill:#FFFFFF;" width="1.765" height="2.675"/>
					
						<rect x="393.694" y="238.431" transform="matrix(0.0328 -0.9995 0.9995 0.0328 141.9881 626.2644)" style="fill:#FFFFFF;" width="1.765" height="2.675"/>
					
						<rect x="393.569" y="242.221" transform="matrix(0.0328 -0.9995 0.9995 0.0328 138.0805 629.8051)" style="fill:#FFFFFF;" width="1.765" height="2.676"/>
					
						<rect x="393.445" y="246.01" transform="matrix(0.0328 -0.9995 0.9995 0.0328 134.1722 633.3455)" style="fill:#FFFFFF;" width="1.765" height="2.675"/>
				</g>
				<g>
					
						<rect x="396.383" y="246.805" transform="matrix(0.0328 -0.9995 0.9995 0.0328 133.1629 640.0154)" style="fill:#FFFFFF;" width="1.765" height="8.801"/>
					
						<rect x="393.197" y="253.556" transform="matrix(0.0328 -0.9995 0.9995 0.0328 126.391 640.3967)" style="fill:#FFFFFF;" width="1.765" height="2.675"/>
					
						<rect x="393.073" y="257.346" transform="matrix(0.0328 -0.9995 0.9995 0.0328 122.4828 643.9371)" style="fill:#FFFFFF;" width="1.765" height="2.675"/>
					
						<rect x="392.948" y="261.135" transform="matrix(0.0328 -0.9995 0.9995 0.0328 118.5751 647.4777)" style="fill:#FFFFFF;" width="1.765" height="2.675"/>
					
						<rect x="392.824" y="264.924" transform="matrix(0.0328 -0.9995 0.9995 0.0328 114.6674 651.0185)" style="fill:#FFFFFF;" width="1.765" height="2.675"/>
				</g>
				<g>
					
						<rect x="395.762" y="265.719" transform="matrix(0.0328 -0.9995 0.9995 0.0328 113.6563 657.6873)" style="fill:#FFFFFF;" width="1.765" height="8.801"/>
					
						<rect x="392.576" y="272.471" transform="matrix(0.0328 -0.9995 0.9995 0.0328 106.8856 658.0693)" style="fill:#FFFFFF;" width="1.765" height="2.675"/>
					
						<rect x="392.452" y="276.26" transform="matrix(0.0328 -0.9995 0.9995 0.0328 102.978 661.6099)" style="fill:#FFFFFF;" width="1.765" height="2.675"/>
					
						<rect x="392.327" y="280.049" transform="matrix(0.0328 -0.9995 0.9995 0.0328 99.0702 665.1508)" style="fill:#FFFFFF;" width="1.765" height="2.675"/>
					
						<rect x="392.203" y="283.839" transform="matrix(0.0328 -0.9995 0.9995 0.0328 95.163 668.6918)" style="fill:#FFFFFF;" width="1.765" height="2.675"/>
				</g>
				<g>
					
						<rect x="395.141" y="284.633" transform="matrix(0.0328 -0.9995 0.9995 0.0328 94.1515 675.3604)" style="fill:#FFFFFF;" width="1.765" height="8.801"/>
					
						<rect x="391.955" y="291.385" transform="matrix(0.0328 -0.9995 0.9995 0.0328 87.3808 675.7424)" style="fill:#FFFFFF;" width="1.765" height="2.675"/>
					
						<rect x="391.831" y="295.174" transform="matrix(0.0328 -0.9995 0.9995 0.0328 83.4732 679.283)" style="fill:#FFFFFF;" width="1.765" height="2.675"/>
					
						<rect x="391.706" y="298.964" transform="matrix(0.0328 -0.9995 0.9995 0.0328 79.566 682.824)" style="fill:#FFFFFF;" width="1.765" height="2.675"/>
					
						<rect x="391.582" y="302.753" transform="matrix(0.0328 -0.9995 0.9995 0.0328 75.6577 686.3644)" style="fill:#FFFFFF;" width="1.765" height="2.675"/>
				</g>
				<g>
					
						<rect x="394.52" y="303.548" transform="matrix(0.0328 -0.9995 0.9995 0.0328 74.6467 693.0336)" style="fill:#FFFFFF;" width="1.765" height="8.801"/>
					
						<rect x="391.334" y="310.299" transform="matrix(0.0328 -0.9995 0.9995 0.0328 67.8765 693.4156)" style="fill:#FFFFFF;" width="1.765" height="2.675"/>
					
						<rect x="391.21" y="314.089" transform="matrix(0.0328 -0.9995 0.9995 0.0328 63.9688 696.9564)" style="fill:#FFFFFF;" width="1.765" height="2.676"/>
					
						<rect x="391.085" y="317.878" transform="matrix(0.0328 -0.9995 0.9995 0.0328 60.0606 700.4966)" style="fill:#FFFFFF;" width="1.765" height="2.675"/>
					
						<rect x="390.961" y="321.667" transform="matrix(0.0328 -0.9995 0.9995 0.0328 56.1529 704.0373)" style="fill:#FFFFFF;" width="1.765" height="2.675"/>
				</g>
				<g>
					
						<rect x="393.898" y="322.462" transform="matrix(0.0329 -0.9995 0.9995 0.0329 55.1225 710.6895)" style="fill:#FFFFFF;" width="1.765" height="8.801"/>
					
						<rect x="390.713" y="329.214" transform="matrix(0.0328 -0.9995 0.9995 0.0328 48.3711 711.0882)" style="fill:#FFFFFF;" width="1.765" height="2.675"/>
					
						<rect x="390.589" y="333.003" transform="matrix(0.0328 -0.9995 0.9995 0.0328 44.4634 714.6289)" style="fill:#FFFFFF;" width="1.765" height="2.675"/>
					
						<rect x="390.464" y="336.792" transform="matrix(0.0328 -0.9995 0.9995 0.0328 40.5557 718.1696)" style="fill:#FFFFFF;" width="1.765" height="2.675"/>
					
						<rect x="390.34" y="340.582" transform="matrix(0.0328 -0.9995 0.9995 0.0328 36.6485 721.7108)" style="fill:#FFFFFF;" width="1.765" height="2.675"/>
				</g>
				<g>
					
						<rect x="393.277" y="341.376" transform="matrix(0.0328 -0.9995 0.9995 0.0328 35.6409 728.3835)" style="fill:#FFFFFF;" width="1.765" height="8.801"/>
					
						<rect x="390.092" y="348.128" transform="matrix(0.0328 -0.9995 0.9995 0.0328 28.8663 728.7612)" style="fill:#FFFFFF;" width="1.765" height="2.675"/>
					
						<rect x="389.967" y="351.917" transform="matrix(0.0328 -0.9995 0.9995 0.0328 24.9586 732.3019)" style="fill:#FFFFFF;" width="1.765" height="2.675"/>
					
						<rect x="389.843" y="355.707" transform="matrix(0.0328 -0.9995 0.9995 0.0328 21.0514 735.8431)" style="fill:#FFFFFF;" width="1.765" height="2.675"/>
					
						<rect x="389.719" y="359.496" transform="matrix(0.0328 -0.9995 0.9995 0.0328 17.1433 739.3834)" style="fill:#FFFFFF;" width="1.765" height="2.675"/>
				</g>
				<g>
					
						<rect x="392.656" y="360.291" transform="matrix(0.0328 -0.9995 0.9995 0.0328 16.1357 746.0563)" style="fill:#FFFFFF;" width="1.765" height="8.801"/>
				</g>
			</g>
		</g>
	</g>
	<g>
		<g>
			<g>
				<polygon style="fill:#EE786B;" points="126.526,453.635 94.706,453.635 101.883,362.882 119.35,362.882 				"/>
				<path style="fill:#D36259;" d="M124.609,429.385l-4.853-61.374l-12.04-5.13h-5.832l-2.279,28.813
					C107.008,413.156,116.612,423.959,124.609,429.385z"/>
				<g>
					<g>
						
							<ellipse transform="matrix(0.9026 -0.4304 0.4304 0.9026 -148.1257 78.0186)" style="fill:#EE786B;" cx="98.374" cy="366.397" rx="11.456" ry="19.211"/>
					</g>
					<g>
						
							<ellipse transform="matrix(0.9026 -0.4304 0.4304 0.9026 -137.6338 91.3347)" style="fill:#E9F6FF;" cx="133.049" cy="349.862" rx="41.091" ry="62.637"/>
					</g>
					<g>
						
							<ellipse transform="matrix(0.9026 -0.4304 0.4304 0.9026 -134.976 94.7066)" style="fill:#FFFFFF;" cx="141.83" cy="345.674" rx="28.98" ry="58.185"/>
					</g>
					<g>
						<path style="fill:none;stroke:#D7E7FF;stroke-miterlimit:10;" d="M110.958,322.2c0.04-10.352,3.228-18.298,9.522-21.299
							c3.821-1.822,8.339-1.608,13.104,0.294"/>
						<path style="fill:none;stroke:#D7E7FF;stroke-miterlimit:10;" d="M112.843,337.5c-1.276-5.436-1.903-10.615-1.885-15.3"/>
						<path style="fill:none;stroke:#D7E7FF;stroke-miterlimit:10;" d="M152.185,390.888c-11.103-3.301-23.977-16.384-32.654-34.58"
							/>
						<path style="fill:none;stroke:#D7E7FF;stroke-miterlimit:10;" d="M151.154,314.858c4.782,5.548,9.263,12.397,12.976,20.183
							c5.999,12.581,8.836,25.182,8.553,35.3"/>
					</g>
					<g>
						<path style="fill:#EE786B;" d="M155.494,408.43c-7.622,0.677-16.113-1.899-24.666-7.604
							c-11.678-7.787-22.138-20.523-29.452-35.861c-15.215-31.908-11.873-65.366,7.451-74.581
							c19.327-9.216,47.427,9.248,62.642,41.156l0,0c7.314,15.338,10.626,31.483,9.326,45.459
							c-1.326,14.253-7.285,24.595-16.778,29.123C161.343,407.397,158.485,408.164,155.494,408.43z M117.616,291.016
							c-2.624,0.233-5.146,0.9-7.518,2.031c-17.856,8.515-20.574,40.207-6.059,70.648c7.089,14.865,17.184,27.181,28.426,34.677
							c11.011,7.343,21.768,9.146,30.283,5.088c8.518-4.062,13.884-13.556,15.11-26.733c1.251-13.455-1.963-29.05-9.051-43.916l0,0
							C156.22,306.414,134.743,289.493,117.616,291.016z"/>
					</g>
					<g>
						
							<ellipse transform="matrix(0.9026 -0.4304 0.4304 0.9026 -133.4019 96.7053)" style="fill:#EE786B;" cx="147.034" cy="343.193" rx="11.456" ry="19.211"/>
					</g>
					<g>
						<path style="fill:#A55D51;" d="M156.63,338.617c3.962,8.309,4.143,16.489,0.405,18.272
							c-3.738,1.783-9.981-3.508-13.943-11.816c-3.962-8.309-4.143-16.489-0.405-18.272
							C146.426,325.018,152.668,330.308,156.63,338.617z"/>
					</g>
				</g>
				<rect x="87.591" y="450.116" style="fill:#EE786B;" width="83.039" height="6.468"/>
				<path style="fill:none;stroke:#D7E7FF;stroke-miterlimit:10;" d="M144.523,372.49c13.898,13.754,25.073,7.164,20.775-13.468"/>
				<path style="fill:none;stroke:#D7E7FF;stroke-miterlimit:10;" d="M128.333,346.076c-8.406-27.362,8.622-41.86,27.044-16.654"/>
			</g>
			<polygon style="fill:#FFFFFF;" points="133.048,450.116 115.005,450.116 117.359,445.779 130.695,445.779 			"/>
			<circle style="fill:#1D3244;" cx="102.922" cy="417.378" r="3.097"/>
			<path style="fill:#AD4A45;" d="M125.243,437.398c-8.326-2.7-15.352-13.778-15.44-13.919l-0.176-0.281H97.113l-0.094,1.195h11.949
				c1.228,1.891,8.1,11.972,16.378,14.316L125.243,437.398z"/>
		</g>
		<g>
			<path style="fill:none;stroke:#B3CEFF;stroke-width:2;stroke-miterlimit:10;" d="M177.164,360.472
				c3.463-2.786,6.223,0.644,9.685-2.143c3.464-2.787,0.704-6.217,4.168-9.005c3.463-2.786,6.223,0.644,9.686-2.143
				c3.465-2.788,0.705-6.218,4.171-9.007c3.465-2.788,6.225,0.642,9.69-2.147"/>
			<path style="fill:none;stroke:#B3CEFF;stroke-width:2;stroke-miterlimit:10;" d="M125.404,300.234
				c3.463-2.786,6.223,0.644,9.686-2.143c3.464-2.787,0.704-6.217,4.168-9.005c3.463-2.786,6.223,0.644,9.686-2.143
				c3.465-2.788,0.705-6.218,4.171-9.007s6.225,0.642,9.69-2.147"/>
			<path style="fill:none;stroke:#B3CEFF;stroke-width:2;stroke-miterlimit:10;" d="M166.231,312.556
				c3.463-2.786,6.223,0.644,9.686-2.142c3.464-2.787,0.704-6.217,4.168-9.005c3.463-2.786,6.223,0.644,9.686-2.143
				c3.465-2.788,0.705-6.218,4.171-9.007s6.225,0.642,9.691-2.147"/>
			<path style="fill:none;stroke:#B3CEFF;stroke-width:2;stroke-miterlimit:10;" d="M133.485,347.809
				c3.463-2.786,6.223,0.644,9.686-2.143c3.464-2.787,0.704-6.217,4.168-9.005c3.463-2.786,6.223,0.644,9.686-2.143
				c3.465-2.788,0.705-6.218,4.171-9.007c3.465-2.788,6.225,0.642,9.691-2.147"/>
		</g>
	</g>
	<g>
		<g>
			<path style="fill:#8EB5EF;" d="M426.941,95.375H269.297c-1.991,0-3.36-2.001-2.638-3.857l7.665-19.693
				c0.423-1.087,1.471-1.804,2.637-1.804h142.313c1.167,0,2.214,0.716,2.637,1.804l7.665,19.693
				C430.3,93.373,428.932,95.375,426.941,95.375z"/>
		</g>
		<polygon style="fill:#6E99CE;" points="267.806,88.572 429.402,91.065 423.921,76.985 272.317,76.985 		"/>
		<path style="fill:#B3CEFF;" d="M431.715,87.503H263.634c-2,0-3.621-1.621-3.621-3.621V44.309c0-2,1.621-3.621,3.621-3.621h168.081
			c2,0,3.621,1.621,3.621,3.621v39.573C435.336,85.882,433.715,87.503,431.715,87.503z"/>
		<rect x="264.27" y="79.798" style="fill:#325066;" width="157.83" height="3.854"/>
		<g>
			<path style="fill:#8EB5EF;" d="M431.335,46.818c0,1.626-1.318,2.944-2.944,2.944c-1.626,0-2.944-1.318-2.944-2.944
				c0-1.626,1.318-2.944,2.944-2.944C430.016,43.873,431.335,45.192,431.335,46.818z"/>
			<circle style="fill:#D36259;" cx="428.39" cy="46.818" r="2.111"/>
		</g>
		<g>
			<path style="fill:#8EB5EF;" d="M420.594,46.818c0,1.626-1.318,2.944-2.944,2.944c-1.626,0-2.944-1.318-2.944-2.944
				c0-1.626,1.318-2.944,2.944-2.944C419.276,43.873,420.594,45.192,420.594,46.818z"/>
			<circle style="fill:#DACF35;" cx="417.649" cy="46.818" r="2.111"/>
		</g>
		<rect x="414.705" y="54.207" style="fill:#325066;" width="16.63" height="18.861"/>
		<rect x="264.27" y="44.707" style="fill:#D7E7FF;" width="85.454" height="19.389"/>
		<rect x="264.27" y="67.947" style="fill:#8EB5EF;" width="146.307" height="5.121"/>
	</g>
</g>
</svg>
